HIERARCHY
ROOT ui
{
	 OFFSET 0 0 0
	 CHANNELS 3 XPosition YPosition Z Position
	 EndSite
	 {
	 OFFSET 0 -1 0
	 }
}
ROOT li
{
	 OFFSET 0 0 0
	 CHANNELS 3 XPosition YPosition Z Position
	 EndSite
	 {
	 OFFSET 0 -1 0
	 }
}
ROOT ul
{
	 OFFSET 0 0 0
	 CHANNELS 3 XPosition YPosition Z Position
	 EndSite
	 {
	 OFFSET 0 -1 0
	 }
}
ROOT ll
{
	 OFFSET 0 0 0
	 CHANNELS 3 XPosition YPosition Z Position
	 EndSite
	 {
	 OFFSET 0 -1 0
	 }
}
ROOT tt
{
	 OFFSET 0 0 0
	 CHANNELS 3 XPosition YPosition Z Position
	 EndSite
	 {
	 OFFSET 0 -1 0
	 }
}
ROOT tb
{
	 OFFSET 0 0 0
	 CHANNELS 3 XPosition YPosition Z Position
	 EndSite
	 {
	 OFFSET 0 -1 0
	 }
}
ROOT td
{
	 OFFSET 0 0 0
	 CHANNELS 3 XPosition YPosition Z Position
	 EndSite
	 {
	 OFFSET 0 -1 0
	 }
}
ROOT v
{
	 OFFSET 0 0 0
	 CHANNELS 3 XPosition YPosition Z Position
	 EndSite
	 {
	 OFFSET 0 -1 0
	 }
}
ROOT bn
{
	 OFFSET 0 0 0
	 CHANNELS 3 XPosition YPosition Z Position
	 EndSite
	 {
	 OFFSET 0 -1 0
	 }
}
MOTION
Frames: 21
Frame Time: 0.002
0.00226263689994812	5.092149972915649E-4	0		0.4186647644042969	-2.31555517578125	0		-1.104531005859375	0.02190316390991211	0		-0.8090297241210938	-2.34194189453125	0		1.540476806640625	-0.76195849609375	0		3.227788818359375	-0.05492364501953125	0		4.97198876953125	0.05485783004760742	0		5.5930458984375	0.10235106658935547	0		-0.2268929443359375	5.91073388671875	0		
-0.019478918075561524	0.004685066223144531	0		0.42501318359375	-2.30888818359375	0		-1.096222900390625	0.0285074462890625	0		-0.7667421264648437	-2.3389580078125	0		1.5457989501953124	-0.7552538452148437	0		3.2405947265625	-0.021323633193969727	0		4.9762783203125	0.06062765121459961	0		5.58971630859375	0.11611435699462891	0		-0.21261260986328126	5.9212421875	0		
0.00672174882888794	0.003986531019210816	0		0.4512000732421875	-2.312578125	0		-1.0960181884765625	0.02826774597167969	0		-0.7793826904296876	-2.332953857421875	0		1.5639410400390625	-0.7597766723632813	0		3.21921533203125	-0.05309423828125	0		4.97851904296875	0.06244689178466797	0		5.59038134765625	0.08992535400390625	0		-0.22865773010253906	5.91331396484375	0		
-0.022104249954223634	0.0013101890087127686	0		0.4494310302734375	-2.314742431640625	0		-1.103921630859375	0.02118577766418457	0		-0.7123098754882813	-2.344406982421875	0		1.5611064453125	-0.7639014282226563	0		3.214570068359375	-0.04615327453613281	0		4.96435888671875	0.041577640533447265	0		5.5799912109375	0.10924242401123047	0		-0.22854362487792967	5.913099609375	0		
0.0031135830879211427	-3.4675800800323486E-4	0		0.4217208251953125	-2.314417724609375	0		-1.103681640625	0.020966541290283202	0		-0.7849569091796875	-2.340279541015625	0		1.5613616943359374	-0.7640692138671875	0		3.2346611328125	-0.05465485000610352	0		4.96459814453125	0.04146197128295898	0		5.59071826171875	0.08957914733886718	0		-0.2284172821044922	5.9128974609375	0		
0.003368839979171753	-5.319809913635254E-4	0		0.424058349609375	-2.3126318359375	0		-1.099354248046875	0.024685348510742187	0		-0.7738037109375	-2.348680908203125	0		1.5416536865234376	-0.7628570556640625	0		3.219341796875	-0.031486492156982425	0		4.97308984375	0.05421253204345703	0		5.58744140625	0.10344277191162109	0		-0.22729792785644531	5.911689453125	0		
0.00771085786819458	0.0032223279476165773	0		0.42642938232421873	-2.30983203125	0		-1.095031005859375	0.02741741943359375	0		-0.8053529663085938	-2.34128369140625	0		1.545011474609375	-0.75905322265625	0		3.239297119140625	-0.048956272125244144	0		4.985337890625	0.05290796279907226	0		5.5940419921875	0.1013228530883789	0		-0.228130126953125	5.91253125	0		
0.007993000984191895	0.003064655065536499	0		0.45066390991210936	-2.315419189453125	0		-1.0947493896484375	0.027236934661865234	0		-0.7819713134765625	-2.338879150390625	0		1.5422366943359376	-0.76312353515625	0		3.2438359375	-0.03512259292602539	0		4.97363916015625	0.05405807876586914	0		5.59010986328125	0.12046245574951171	0		-0.24118753051757813	5.9006083984375	0		
0.004212543964385986	-0.0010051089525222778	0		0.4230091552734375	-2.3150419921875	0		-1.0985120849609376	0.02414387321472168	0		-0.7836664428710938	-2.34100244140625	0		1.5625230712890625	-0.7646000366210938	0		3.23091162109375	-0.04695873641967773	0		4.97769189453125	0.04093314361572266	0		5.5880771484375	0.10666952514648438	0		-0.22780223083496093	5.91222021484375	0		
-0.02046740913391113	3.2119399309158325E-4	0		0.4493150634765625	-2.31763671875	0		-1.1022872314453125	0.02006442451477051	0		-0.7952077026367188	-2.334930908203125	0		1.5428585205078125	-0.7633319091796875	0		3.210359619140625	-0.03863812255859375	0		4.9742265625	0.053964942932128904	0		5.5882666015625	0.10318626403808594	0		-0.22763006591796875	5.91208544921875	0		
0.004809413909912109	-0.001251065969467163	0		0.3997998046875	-2.30983349609375	0		-1.0938621826171875	0.026777498245239256	0		-0.772117431640625	-2.349481201171875	0		1.5631524658203124	-0.764779541015625	0		3.242235107421875	-0.06226510620117188	0		4.9745244140625	0.053940139770507815	0		5.588482421875	0.10318761444091797	0		-0.21033273315429687	5.9186533203125	0		
0.009179475784301758	0.0025722479820251467	0		0.45408380126953124	-2.31391064453125	0		-1.0894927978515625	0.030577186584472657	0		-0.7676968994140625	-2.345674560546875	0		1.557558837890625	-0.7597408447265624	0		3.249134033203125	-0.02941338539123535	0		4.9789296875	0.05985494232177734	0		5.59805908203125	0.11491091156005859	0		-0.2111437530517578	5.9195634765625	0		
-0.016522199630737304	0.002954417943954468	0		0.4284861145019531	-2.31051953125	0		-1.0932713623046875	0.026536554336547852	0		-0.7463198852539062	-2.344163818359375	0		1.585828125	-0.7623071899414062	0		3.221978759765625	-0.053939765930175784	0		4.98709375	0.052711166381835935	0		5.5953154296875	0.10124434661865235	0		-0.22711880493164063	5.91176025390625	0		
0.0056893758773803715	-0.0015239020586013793	0		0.47663250732421875	-2.321459716796875	0		-1.097037841796875	0.023507896423339843	0		-0.7839769287109375	-2.343568359375	0		1.5441025390625	-0.7635901489257813	0		3.232393310546875	-0.04713463592529297	0		4.967166015625	0.04108642578125	0		5.592580078125	0.08932221984863281	0		-0.24016958618164064	5.89991455078125	0		
-0.01900811767578125	-1.3892799615859984E-4	0		0.4230220031738281	-2.317539794921875	0		-1.100830078125	0.01949087715148926	0		-0.7419293823242188	-2.359411865234375	0		1.58435498046875	-0.766353515625	0		3.249435791015625	-0.060445449829101563	0		4.96744580078125	0.041102378845214844	0		5.58637744140625	0.09140335845947266	0		-0.24000616455078125	5.89984130859375	0		
0.006242104053497314	-0.0016513899564743041	0		0.42537298583984373	-2.315627685546875	0		-1.096486083984375	0.02333829879760742	0		-0.7724815673828125	-2.351924072265625	0		1.5536285400390626	-0.766821533203125	0		3.2521982421875	-0.03348556137084961	0		4.97595166015625	0.05397454071044922	0		5.58951708984375	0.10345742034912109	0		-0.22468154907226562	5.90850439453125	0		
0.010579641342163087	0.0022247180938720704	0		0.4297669982910156	-2.310744873046875	0		-1.0921671142578124	0.026196285247802733	0		-0.7351829223632812	-2.35265771484375	0		1.5738856201171876	-0.7682086791992188	0		3.238068603515625	-0.055225433349609374	0		4.97621630859375	0.05399453735351562	0		5.589708984375	0.1035262680053711	0		-0.2254774169921875	5.9104677734375	0		
0.006767720222473145	-0.0017457380294799805	0		0.45396578979492186	-2.316215576171875	0		-1.0919075927734374	0.026136882781982423	0		-0.771883056640625	-2.35204248046875	0		1.5483055419921874	-0.7597604370117188	0		3.257579345703125	-0.04156836700439453	0		4.98023974609375	0.040942405700683596	0		5.589921875	0.107046875	0		-0.35867919921875	5.89083056640625	0		
0.011092445373535157	0.002143989086151123	0		0.4282876586914062	-2.313777587890625	0		-1.0916549072265624	0.026086114883422853	0		-0.7135925903320313	-2.35213818359375	0		1.565474609375	-0.7650853881835937	0		3.238582763671875	-0.055219993591308594	0		4.968494140625	0.041174465179443356	0		5.59648291015625	0.1016275634765625	0		-0.22610411071777345	5.9113984375	0		
0.004210279941558838	-0.004760423183441162	0		0.4244835815429687	-2.317732421875	0		-1.095465576171875	0.023115234375	0		-0.7862584838867187	-2.347859130859375	0		1.5457471923828126	-0.7637398681640625	0		3.225009521484375	-0.04496672821044922	0		4.98073486328125	0.040970382690429685	0		5.5937158203125	0.0896886978149414	0		-0.22494134521484374	5.91034619140625	0		
-0.01748513603210449	-3.915010094642639E-4	0		0.4267701416015625	-2.31579248046875	0		-1.0783662109375	0.0157711238861084	0		-0.7751537475585938	-2.356091796875	0		1.5518558349609375	-0.7708601684570312	0		3.244928466796875	-0.062322254180908206	0		4.98203515625	0.04496463012695313	0		5.59335986328125	0.11570780181884766	0		-0.22282342529296875	5.90728076171875	0		
